/* XPM */
static char *_7d2b495aeb0473aff847e605653dbffrwiVI0ITUw008zRT[] = {
/* columns rows colors chars-per-pixel */
"64 64 2 1 ",
"  c None",
". c black",
/* pixels */
"                                                                ",
"                                                                ",
"                                                                ",
"                                                                ",
"                            .....                               ",
"                            .......                             ",
"                            ........                            ",
"          .....           . ..........                          ",
"       ............      ..  ..........                         ",
"     ...         ....   ...  ...........                        ",
"    ..              ........  ............                      ",
"   ..                 ......  .............                     ",
"  ..                  .......  .............                    ",
"  ..                 .........  .............                   ",
"  .                 ..........  ..............                  ",
"  .                ............  ..............                 ",
" ..                .............  ..............                ",
"  .               ...............  ..............               ",
"  .              .................  ..............              ",
"  ..            ...................  .............              ",
"  ..           .........     ......  ..............             ",
"   ..          ........  ...  ......  ..............            ",
"    .         ......... ..... .......  ..............           ",
"    ..       .......... .. ..  .......  .............           ",
"     ..     ........... .  .. .........   ............          ",
"      ...   ...........   ..  ..........   ............         ",
"       ...    .........      .............  ...........         ",
"         ...            ..  ...............  ...........        ",
"         .......     .......................  ..........        ",
"        .....................................   .........       ",
"        .......................................  ........       ",
"       .........................................   .....        ",
"       ...........................................    .         ",
"       .............................................            ",
"       ..............................................           ",
"       .............................................            ",
"       ...........................................              ",
"        .........................................               ",
"        ........................................                ",
"         ......................................                 ",
"          ...................................                   ",
"           .................................                    ",
"            ...............................           ...       ",
"             .............................           ....       ",
"              ..........................            ......      ",
"               ........................             .......     ",
"                ......................             .........    ",
"                 ....................             ..........    ",
"                  .................               ...........   ",
"                   ...............               ............   ",
"                    .............                .............  ",
"                     ..........                 ..............  ",
"                      ........                  ..............  ",
"                         ...                    ... ........... ",
"                                                ...  .........  ",
"                                                ....  ........  ",
"                                                 ....   ......  ",
"                                                  ...........   ",
"                                                  ..........    ",
"                                                    .......     ",
"                                                                ",
"                                                                ",
"                                                                ",
"                                                                "
};
