/* XPM */
static char *ee36d31008874093c4070f9533f35f6fLXQrPoGg68Ma1YOn[] = {
/* columns rows colors chars-per-pixel */
"64 64 2 1 ",
"  c None",
". c black",
/* pixels */
"                                                                ",
"                                                                ",
"                                                                ",
"                                                                ",
"                                                                ",
"                                                                ",
"                           ..........                           ",
"                       ..................                       ",
"                     .......        .......                     ",
"                   .....                .....                   ",
"                 .....                    .....                 ",
"                ....                        ....                ",
"               ...                            ...               ",
"              ...                              ...              ",
"             ...                                ...             ",
"            ...                                  ...            ",
"           ...                                    ...           ",
"          ...                                      ...          ",
"          ..                                        ..          ",
"         ...                                        ...         ",
"         ..                                          ..         ",
"        ...                                          ...        ",
"        ..                                            ..        ",
"       ...                                            ...       ",
"       ..                                              ..       ",
"       ..                                              ..       ",
"       ..                                              ..       ",
"      ...                                              ...      ",
"      ..                                                ..      ",
"      ..                                                ..      ",
"      ..                                                ..      ",
"      ..                                                ..      ",
"      ..                                                ..      ",
"      ..                                                ..      ",
"      ..                                                ..      ",
"      ..                                                ..      ",
"      ...                                              ...      ",
"       ..                                              ..       ",
"       ..                                              ..       ",
"       ..                                              ..       ",
"       ...                                            ...       ",
"        ..                                            ..        ",
"        ...                                          ...        ",
"         ..                                          ..         ",
"         ...                                        ...         ",
"          ..                                        ..          ",
"          ...                                      ...          ",
"           ...                                    ...           ",
"            ...                                  ...            ",
"             ...                                ...             ",
"              ...                              ...              ",
"               ...                            ...               ",
"                ....                        ....                ",
"                 .....                    .....                 ",
"                   .....                .....                   ",
"                     .......        .......                     ",
"                       ..................                       ",
"                           ..........                           ",
"                                                                ",
"                                                                ",
"                                                                ",
"                                                                ",
"                                                                ",
"                                                                "
};
