/* XPM */
static char *_5dfe68c94674d73953e10e229d98b760XJgheBbpynOUQV3[] = {
/* columns rows colors chars-per-pixel */
"64 64 2 1 ",
"  c None",
". c black",
/* pixels */
"       .......                                                  ",
"     ...........                                                ",
"    .............                                               ",
"   ..............                                               ",
"  ..............                                                ",
" ..............                                                 ",
" .............                                                  ",
".............        .                                          ",
"............        ...                                         ",
"...........        .....                                        ",
"..........        .......                                       ",
".........        .........                                      ",
"........        ...........                                     ",
".......        .............                                    ",
" .....        ...............                                   ",
" ....        .................                                  ",
"  ..        ...................                                 ",
"           .....................                                ",
"          .......................                               ",
"         .........................                              ",
"        ...........................                             ",
"       .............................                            ",
"        .............................                           ",
"         .............................                          ",
"          .............................                         ",
"           .............................                        ",
"            .............................                       ",
"             .............................                      ",
"              .............................                     ",
"               .............................                    ",
"                .............................                   ",
"                 .............................                  ",
"                  .............................                 ",
"                   .............................                ",
"                    .............................               ",
"                     .............................              ",
"                      .............................             ",
"                       .............................            ",
"                        .............................           ",
"                         .............................          ",
"                          ............................          ",
"                           ......................   ...         ",
"                            ...................     ...         ",
"                             ..................     ....        ",
"                              ................       ...        ",
"                               ...............       ...        ",
"                                ............          ...       ",
"                                 .........            ...       ",
"                                  ........            ....      ",
"                                   ......              ...      ",
"                                    .....              ...      ",
"                                     ....               ...     ",
"                                      ......            ...     ",
"                                       .......           ...    ",
"                                         ........        ...    ",
"                                           ........      ....   ",
"                                              .......   .....   ",
"                                                .............   ",
"                                                   ...........  ",
"                                                     .........  ",
"                                                       ........ ",
"                                                          ..... ",
"                                                            ....",
"                                                              .."
};
