/* XPM */
static char *_41a861de5fe4befb57007d67c2bb677uJaNBdmGpOsZE1hX[] = {
/* columns rows colors chars-per-pixel */
"64 64 95 2 ",
"   c None",
".  c #1E1A1B",
"X  c #1F1B1C",
"o  c #201B1C",
"O  c #201C1D",
"+  c #211D1E",
"@  c #211D1F",
"#  c #221D1E",
"$  c #211E1E",
"%  c #221E1E",
"&  c #221E1F",
"*  c #231F1F",
"=  c #231F20",
"-  c #242021",
";  c #242122",
":  c #252122",
">  c #262223",
",  c #272324",
"<  c #282425",
"1  c #292526",
"2  c #2A2627",
"3  c #2B2728",
"4  c #2C2829",
"5  c #2D2A2B",
"6  c #2E2A2B",
"7  c #2F2B2C",
"8  c #2F2C2D",
"9  c #312D2E",
"0  c #332F30",
"q  c #343031",
"w  c #353132",
"e  c #363233",
"r  c #393536",
"t  c #433F40",
"y  c #4D4A4B",
"u  c #535050",
"i  c #555253",
"p  c #575455",
"a  c #585556",
"s  c #5A5757",
"d  c #5A5758",
"f  c #625F60",
"g  c #6B6869",
"h  c #6B6969",
"j  c #747172",
"k  c #757273",
"l  c #757373",
"z  c #757374",
"x  c #787676",
"c  c #787677",
"v  c #797677",
"b  c #7F7C7D",
"n  c #8A8889",
"m  c #918F8F",
"M  c #939191",
"N  c #959393",
"B  c #9C9A9B",
"V  c #9C9B9B",
"C  c #9F9E9E",
"Z  c #A09E9F",
"A  c #A09F9F",
"S  c #A6A4A4",
"D  c #A6A4A5",
"F  c #A6A5A5",
"G  c #ADABAC",
"H  c #B1AFB0",
"J  c #B1B0B0",
"K  c #B2B0B0",
"L  c #B2B0B1",
"P  c #B2B1B1",
"I  c #B8B7B7",
"U  c #CECDCD",
"Y  c #D0CFD0",
"T  c #D4D3D3",
"R  c #DCDBDB",
"E  c #DDDCDC",
"W  c #DDDDDD",
"Q  c #DEDDDD",
"!  c #E9E9E9",
"~  c #EAEAEA",
"^  c gray92",
"/  c #EDECEC",
"(  c gray93",
")  c #EEEEEE",
"_  c #EFEEEE",
"`  c gray94",
"'  c #F4F3F3",
"]  c #F8F8F8",
"[  c #F9F9F9",
"{  c #FBFBFB",
"}  c gray99",
"|  c #FDFDFD",
" . c #FEFDFD",
".. c #FEFEFE",
"X. c white",
/* pixels */
"                                                                                                                                ",
"                                                                                                                                ",
"                                                                                                                                ",
"                                                                                                                                ",
"                                                                                                                                ",
"                                                                                                                                ",
"                                                                                                                                ",
"                                                                                                                                ",
"                                                                                                                                ",
"                                                                                                                                ",
"                                                                          = +                                                   ",
"                                                                        + 4 < +                                                 ",
"                                                                      + q G N < +                                               ",
"                                                                    + q J  .[ N < =                                             ",
"                                                                  + < F  . . .[ N , X                                           ",
"                                                                = > > v `  . . .] N < =                                         ",
"                                                              + q F z = c `  . . .] N < =                                       ",
"                                                            + q J  .) z - v `  . . .] N < +                                     ",
"                                                          + q J  . . .` k - z `  . . .[ N , =                                   ",
"                                                        + q J  . . . . .) k = v `  . . .] N < +                                 ",
"                                                      + q J  . . . . . . .` z = v `  . . .[ N < +                               ",
"                                                    + q P  . . . . . . . . .) k - v `  . . .] N < +                             ",
"                                                  + q J  . . . . . . . . . . .) k - v `  . . .[ N < +                           ",
"                                                = q J  . . . . . . . . . . . . .) k - c `  . . .] N < +                         ",
"                                              + q J  . . . . . . . . . . . . . . .` z = v `  . . .[ N < +                       ",
"                                            + q J  . . . . . . . . . . . . . . . . .) k > z `  . . .] N 4 =                     ",
"                                          + e J  . . . . . . . . . . . . . . . . . . .` k + v `  . . .' f o                     ",
"                                        + q J  . . . . . . . . . . . . . . . . . . . . .) k - z `  . .Z 9 +                     ",
"                                      + q J  . . . . . . . . . . . . . . . . . . . . . . .) k - v ) A 5 +                       ",
"                                    + q J  . . . . . . . . . . . . . . . . . . . . . . . . .) z < p 9 +                         ",
"                                  + q J  . . . . . . . . . . . . . . . . . . . . . . . . . . .~ i X =                           ",
"                                + q J  . . . . . . . . . . . . . . . . . . . . . . . . . . . .A 9 +                             ",
"                              + q J  . . . . . . . . . . . . . . . . . . . . . . . . . . . .A 4 +                               ",
"                            + q J  . . . . . . . . . . . . . . . . . . . . . . . . . . . .C 5 +                                 ",
"                          = q J  . . . . . . . . . . . . . . . . . . . . . . . . . . . .C 5 +                                   ",
"                        + + a )  . . . . . . . . . . . . . . . . . . . . . . . . . . .A 5 +                                     ",
"                      + q y X v `  . . . . . . . . . . . . . . . . . . . . . . . . .C 5 +                                       ",
"                    + q J Q p X v `  . . . . . . . . . . . . . . . . . . . . . . .A 4 +                                         ",
"                  + 0 H  . .Q d + c `  . . . . . . . . . . . . . . . . . . . . .A 5 +                                           ",
"                = > V  . . . .Q a = v `  . . . . . . . . . . . . . . . . . . .C 5 +                                             ",
"                X y ~  . . . . .Q a + c `  . . . . . . . . . . . . . . . . .C 5 +                                               ",
"                . b  . . . . . . .Q p + c `  . . . . . . . . . . . . . . .A 4 +                                                 ",
"                X N  . . . . . . . .Q d + c `  . . . . . . . . . . . . .A 5 +                                                   ",
"                X h  . . . . . . . . .Q a = v `  . . . . . . . . . . .C 5 +                                                     ",
"                + r T  . . . . . . . . .Q a + c `  . . . . . . . . .A 4 +                                                       ",
"                  + h )  . . . . . . . . .Q a + c `  . . . . . . .C 5 +                                                         ",
"                  > = k `  . . . . . . . . .Q a + c `  . . . .| C 5 +                                                           ",
"                    + = k `  . . . . . . . . .Q a = v `  . . .A 5 +                                                             ",
"                      + > k )  . . . . . . . . .Q d + c `  .C 4 +                                                               ",
"                        + = z _  . . . . . . . . .Q a + v N 5 +           = = = = = = = = = = = > = = = = = = = =               ",
"                          + = k )  . . . . . . . . .Q d + > +               = = = = = = = = = = = = = = = = = = =               ",
"                            + > z `  . . . . . . . . .n + >                                                                     ",
"                              + - k )  . . . . . . .Z 9 =             = = = = = = = = = = = = = = = = = =                       ",
"                                + - k ~  . . . .] C 4 +             = = = = = = = = = = = = = = = = = = = =                     ",
"                                  + = u F U T I h 3 +                                                                           ",
"                                      + > 5 4 < X +                                                                             ",
"                                            +                 = = = = = = = = = = = = = = = = = = = =                           ",
"                                                                = = = = = = = = = = = = = = = = = =                             ",
"                                                                                                                                ",
"                                                                                                                                ",
"                                                                                                                                ",
"                                                                                                                                ",
"                                                                                                                                ",
"                                                                                                                                "
};
